<svg width="215" height="219" viewBox="0 0 215 219" fill="none" xmlns="http://www.w3.org/2000/svg">
<g clip-path="url(#clip0_1_2)">
<rect width="215" height="219" rx="25" fill="#0500FF"/>
<path d="M100.853 28C117.975 28 132.937 31.3846 145.74 38.1538C158.543 44.9231 168.415 54.4615 175.357 66.7692C182.452 78.9231 186 93 186 109C186 124.846 182.452 138.923 175.357 151.231C168.415 163.538 158.466 173.077 145.509 179.846C132.706 186.615 117.82 190 100.853 190H40V28H100.853ZM98.3074 155.846C113.27 155.846 124.916 151.769 133.246 143.615C141.575 135.462 145.74 123.923 145.74 109C145.74 94.0769 141.575 82.4615 133.246 74.1538C124.916 65.8462 113.27 61.6923 98.3074 61.6923H79.5658V155.846H98.3074Z" fill="white"/>
</g>
<defs>
<clipPath id="clip0_1_2">
<rect width="215" height="219" fill="white"/>
</clipPath>
</defs>
</svg>
