<?xml version="1.0" standalone="no"?>
<!DOCTYPE svg PUBLIC "-//W3C//DTD SVG 20010904//EN"
 "http://www.w3.org/TR/2001/REC-SVG-20010904/DTD/svg10.dtd">
<svg version="1.0" xmlns="http://www.w3.org/2000/svg"
 width="512.000000pt" height="512.000000pt" viewBox="0 0 512.000000 512.000000"
 preserveAspectRatio="xMidYMid meet">
<metadata>
Created by potrace 1.14, written by Peter Selinger 2001-2017
</metadata>
<g transform="translate(0.000000,512.000000) scale(0.100000,-0.100000)"
fill="#000000" stroke="none">
<path d="M392 5106 c-183 -45 -343 -210 -381 -394 -15 -74 -16 -4229 0 -4304
39 -189 207 -357 397 -397 74 -15 4229 -16 4304 0 189 39 357 207 397 397 15
74 16 4229 0 4304 -39 189 -207 357 -397 397 -82 17 -4248 14 -4320 -3z m3349
-1641 c96 -16 200 -50 277 -89 l52 -26 0 -93 c0 -50 3 -122 7 -159 11 -119
-20 -92 -158 142 -24 41 -60 90 -80 110 -96 93 -290 104 -455 25 -97 -47 -170
-126 -228 -248 -74 -155 -95 -283 -95 -572 0 -287 21 -414 94 -572 67 -143
153 -224 285 -269 84 -28 265 -26 345 6 94 36 128 79 211 265 41 90 78 161 87
163 12 3 14 -22 10 -180 -2 -101 -6 -188 -8 -194 -5 -17 -194 -88 -290 -111
-120 -27 -410 -25 -517 5 -274 75 -455 222 -563 456 -63 136 -80 225 -80 436
1 162 3 196 24 270 82 303 292 523 577 606 154 44 352 56 505 29z m-1227 -117
c3 -35 7 -134 9 -220 l3 -158 -37 0 -37 0 -70 143 c-52 106 -80 152 -111 180
l-41 37 -140 0 -140 0 0 -747 c0 -714 1 -749 19 -779 20 -33 45 -46 136 -66
54 -12 60 -16 60 -38 l0 -25 -407 -3 -408 -2 0 29 c0 28 3 29 65 41 72 14 123
42 142 80 10 19 13 194 13 768 l0 742 -135 0 c-104 0 -143 -4 -166 -16 -38
-19 -91 -102 -154 -237 l-49 -107 -40 0 -39 0 6 143 c4 78 7 177 7 220 l0 77
754 0 754 0 6 -62z"/>
</g>
</svg>
