<?xml version="1.0" standalone="no"?>
<!DOCTYPE svg PUBLIC "-//W3C//DTD SVG 20010904//EN"
 "http://www.w3.org/TR/2001/REC-SVG-20010904/DTD/svg10.dtd">
<svg version="1.0" xmlns="http://www.w3.org/2000/svg"
 width="400.000000pt" height="400.000000pt" viewBox="0 0 400.000000 400.000000"
 preserveAspectRatio="xMidYMid meet">
<metadata>
Created by potrace 1.14, written by Peter Selinger 2001-2017
</metadata>
<g transform="translate(0.000000,400.000000) scale(0.100000,-0.100000)"
fill="#000000" stroke="none">
<path d="M450 3984 c-215 -58 -380 -225 -435 -440 -14 -54 -15 -230 -13 -1570
l3 -1509 24 -64 c34 -92 113 -203 184 -262 72 -58 180 -112 255 -128 37 -8
499 -11 1535 -11 1643 0 1531 -4 1677 67 97 47 200 150 252 249 73 138 69 34
66 1711 l-3 1508 -24 64 c-70 188 -235 337 -426 386 -88 22 -3011 22 -3095 -1z
m2426 -1974 c117 -333 213 -611 213 -617 1 -10 -32 -13 -132 -13 l-133 0 -45
148 -45 147 -226 3 -226 2 -16 -52 c-8 -29 -28 -96 -44 -148 l-30 -95 -135 -3
-136 -3 43 128 c24 70 115 331 201 578 87 248 164 469 172 493 l15 42 156 -2
156 -3 212 -605z m-1416 590 c219 -35 310 -121 310 -292 0 -134 -50 -225 -144
-259 -20 -7 -36 -16 -36 -19 0 -3 23 -13 50 -23 67 -24 113 -66 140 -129 19
-45 22 -65 18 -152 -3 -89 -7 -107 -33 -155 -53 -97 -159 -160 -303 -181 -37
-5 -178 -10 -314 -10 l-248 0 0 615 0 615 248 0 c136 0 276 -5 312 -10z"/>
<path d="M2427 2162 c-42 -141 -77 -260 -77 -264 0 -5 72 -8 160 -8 88 0 160
3 160 7 0 4 -27 92 -59 197 -33 105 -67 218 -76 251 -10 33 -20 63 -24 67 -4
4 -42 -108 -84 -250z"/>
<path d="M1160 2260 l0 -140 95 0 c133 0 187 13 225 56 25 29 30 43 30 87 0
104 -54 136 -232 137 l-118 0 0 -140z"/>
<path d="M1160 1755 l0 -167 128 4 c144 5 186 18 223 69 31 44 37 130 12 178
-31 60 -78 75 -230 79 l-133 4 0 -167z"/>
</g>
</svg>
