<?xml version="1.0" standalone="no"?>
<!DOCTYPE svg PUBLIC "-//W3C//DTD SVG 20010904//EN"
 "http://www.w3.org/TR/2001/REC-SVG-20010904/DTD/svg10.dtd">
<svg version="1.0" xmlns="http://www.w3.org/2000/svg"
 width="512.000000pt" height="512.000000pt" viewBox="0 0 512.000000 512.000000"
 preserveAspectRatio="xMidYMid meet">
<metadata>
Created by potrace 1.14, written by Peter Selinger 2001-2017
</metadata>
<g transform="translate(0.000000,512.000000) scale(0.100000,-0.100000)"
fill="#000000" stroke="none">
<path d="M373 5100 c-116 -34 -214 -105 -280 -201 -41 -60 -70 -128 -83 -197
-8 -40 -10 -673 -8 -2177 l3 -2120 22 -58 c66 -175 194 -289 373 -333 83 -21
4251 -20 4327 0 193 51 342 204 382 391 7 35 10 702 11 2160 0 2251 2 2145
-48 2257 -61 140 -195 248 -351 285 -45 10 -459 13 -2171 12 -2016 -1 -2118
-1 -2177 -19z"/>
</g>
</svg>
